<svg xmlns="http://www.w3.org/2000/svg" version="1.1" viewBox="0 0 16 16">
	<rect rx="2" ry="2" height="16" width="16" y="0" x="0" fill="#ff5252"/>
	<path d="m12.914 2.6392h-.89346v1.3402c0 .25017-.19656.44673-.44673.44673h-1.7871c-.25017 0-.44673-.19656-.44673-.44673v-1.3402h-2.6804v1.3402c0 .25017-.19656.44673-.44673.44673h-1.7869c-.25017 0-.44673-.19656-.44673-.44673v-1.3402h-.8935c-.49140 0-.89346.40206-.89346.89346v9.8281c0 .49140.40206.89346.89346.89346h9.8281c.49140 0 .89346-.40206.89346-.89346v-9.8283c0-.49140-.40206-.89346-.89346-.89346zm0 10.722h-9.828v-8.0414h9.828zm-7.1477-9.8283h-.8934v-1.7869h.89346zm5.3608 0h-.89346v-1.7869h.89346zm-4.4672 3.5738h-.8935v-.8934h.89346zm1.7869 0h-.8934v-.8934h.89346zm1.7869 0h-.8938v-.8934h.89346zm1.7869 0h-.894v-.8934h.89346zm-7.1481 1.787h-.8935v-.8935h.89346zm1.7869 0h-.8935v-.8935h.89346zm1.7869 0h-.8934v-.8935h.89346zm1.7869 0h-.8938v-.8935h.89346zm1.7869 0h-.894v-.8935h.89346zm-7.1481 1.7865h-.8935v-.8931h.89346zm1.7869 0h-.8935v-.8931h.89346zm1.7869 0h-.8934v-.8931h.89346zm1.7869 0h-.8938v-.8931h.89346zm1.7869 0h-.894v-.8931h.89346zm-7.1481 1.787h-.8935v-.893h.89346zm1.7869 0h-.8935v-.893h.89346zm1.7869 0h-.8934v-.893h.89346zm1.7869 0h-.8938v-.893h.89346z" fill-rule="evenodd" stroke-width=".89346" fill="#f9f9f9"/>
</svg>
