<?xml version="1.0" standalone="no"?>
<!DOCTYPE svg PUBLIC "-//W3C//DTD SVG 20010904//EN"
 "http://www.w3.org/TR/2001/REC-SVG-20010904/DTD/svg10.dtd">
<svg version="1.0" xmlns="http://www.w3.org/2000/svg"
 width="700.000000pt" height="700.000000pt" viewBox="0 0 700.000000 700.000000"
 preserveAspectRatio="xMidYMid meet">
<metadata>
Created by potrace 1.11, written by Peter Selinger 2001-2013
</metadata>
<g transform="translate(0.000000,700.000000) scale(0.100000,-0.100000)"
fill="#000000" stroke="none">
<path d="M2135 6231 c-3 -2 -5 -177 -5 -388 0 -299 3 -383 13 -384 64 -8 377
-3 378 6 1 13 1 758 0 765 -1 7 -380 8 -386 1z"/>
<path d="M4479 6221 c-7 -107 -2 -754 6 -760 6 -4 93 -7 195 -7 l185 1 0 390
0 390 -192 1 c-168 0 -193 -2 -194 -15z"/>
<path d="M1305 5842 c-109 -12 -220 -82 -281 -178 -69 -108 -65 63 -64 -2349
0 -1199 2 -2195 5 -2214 16 -114 99 -236 195 -286 100 -52 -59 -48 2315 -50
1210 -1 2216 2 2235 6 53 11 73 16 100 27 46 18 130 92 164 145 71 108 66 -77
66 2347 0 1425 -3 2205 -10 2240 -14 76 -47 137 -108 197 -102 103 -163 119
-447 119 l-210 -1 -5 -320 c-5 -318 -5 -320 -30 -363 -15 -27 -42 -54 -70 -70
l-45 -27 -415 -1 c-231 -1 -435 2 -460 8 -57 12 -105 48 -132 101 -20 40 -21
56 -22 357 l-1 315 -582 0 c-321 1 -584 -2 -585 -5 0 -3 -2 -145 -3 -315 -2
-334 -3 -343 -59 -403 -49 -54 -56 -55 -526 -56 l-435 -2 -48 24 c-48 24 -98
89 -103 136 -1 12 -3 156 -3 321 l-1 300 -202 0 c-112 0 -216 -1 -233 -3z
m4308 -1172 l37 0 0 -1758 0 -1758 -2150 0 -2150 0 0 1758 0 1757 43 3 c32 2
4029 1 4220 -2z"/>
<path d="M2564 4280 l-41 -5 0 -193 0 -192 196 2 195 3 0 189 c1 126 -3 190
-10 193 -16 6 -293 9 -340 3z"/>
<path d="M3355 4280 l-50 -5 0 -193 0 -192 195 2 195 3 0 192 0 193 -25 1
c-163 3 -274 3 -315 -1z"/>
<path d="M4091 4270 c-5 -12 -7 -311 -2 -367 1 -10 47 -13 194 -13 l193 0 0
189 c-1 104 -4 192 -8 196 -4 4 -88 8 -188 8 -153 2 -183 0 -189 -13z"/>
<path d="M4898 4282 c-22 -3 -28 -9 -28 -28 -1 -13 -1 -71 -1 -129 0 -58 0
-134 1 -170 l0 -65 195 0 195 0 0 195 0 195 -30 1 c-145 3 -310 3 -332 1z"/>
<path d="M1740 3305 l0 -195 195 0 195 0 0 195 0 195 -195 0 -195 0 0 -195z"/>
<path d="M2523 3305 l0 -195 194 0 c177 0 193 1 194 18 0 9 2 97 2 194 l2 178
-196 0 -197 0 1 -195z"/>
<path d="M3305 3305 l0 -195 195 0 195 0 0 195 0 195 -195 0 -195 0 0 -195z"/>
<path d="M4088 3493 c-3 -7 -2 -351 1 -375 1 -5 88 -8 195 -8 l193 0 -1 193
-1 192 -192 3 c-105 1 -193 -1 -195 -5z"/>
<path d="M4869 3445 c0 -30 0 -84 0 -120 0 -36 0 -99 0 -140 l1 -75 195 0 195
0 0 195 0 195 -195 0 -195 0 -1 -55z"/>
<path d="M1746 2712 c-4 -3 -6 -90 -6 -194 l0 -188 35 -1 c19 0 98 0 175 0 77
0 149 0 160 0 19 1 20 8 20 195 l0 195 -189 -1 c-105 0 -192 -3 -195 -6z"/>
<path d="M2526 2712 c-2 -4 -4 -91 -3 -194 l0 -188 46 -1 c132 -2 334 1 339 6
4 4 7 343 3 377 -1 8 -380 8 -385 0z"/>
<path d="M3309 2717 c-5 -6 -4 -387 1 -388 7 -1 283 -1 340 0 l45 1 0 193 0
192 -192 2 c-106 1 -194 1 -194 0z"/>
<path d="M4089 2716 c-1 0 -2 -88 -3 -193 -1 -187 -1 -193 19 -194 22 -1 304
0 346 0 l26 1 -1 194 -1 194 -192 0 c-106 0 -193 -1 -194 -2z"/>
<path d="M4870 2682 c0 -20 -1 -108 -3 -195 l-2 -157 25 -1 c29 -1 326 0 353
0 16 1 17 15 15 194 l-3 192 -192 2 -193 2 0 -37z"/>
<path d="M1740 1740 l0 -195 193 0 192 1 3 195 2 195 -195 0 -195 -1 0 -195z"/>
<path d="M2523 1740 l2 -195 193 0 c185 0 192 1 193 20 1 24 1 346 0 361 -1 7
-66 10 -195 10 l-194 0 1 -196z"/>
<path d="M3309 1926 c-1 -6 -3 -93 -3 -193 -1 -121 2 -183 9 -184 34 -4 375
-3 376 1 4 18 3 373 -1 379 -8 12 -380 9 -381 -3z"/>
<path d="M4092 1931 c-5 -5 -8 -305 -3 -371 1 -13 28 -15 189 -14 103 1 189 2
192 3 7 1 8 381 1 382 -19 5 -372 4 -379 0z"/>
</g>
</svg>
